<svg width="180" height="180" viewBox="0 0 180 180" fill="none" xmlns="http://www.w3.org/2000/svg">
<rect x="13.8113" y="14.5645" width="150.722" height="150.722" fill="white" stroke="black" stroke-width="4"/>
<rect x="0.999939" y="60.5349" width="26.3763" height="18.8402" fill="white" stroke="black" stroke-width="2"/>
<rect x="151.722" y="60.5349" width="26.3763" height="18.8402" fill="white" stroke="black" stroke-width="2"/>
<rect x="0.999939" y="110.273" width="26.3763" height="18.8402" fill="white" stroke="black" stroke-width="2"/>
<rect x="151.722" y="110.273" width="26.3763" height="18.8402" fill="white" stroke="black" stroke-width="2"/>
<rect x="55.2598" y="27.376" width="26.3763" height="18.8402" transform="rotate(-90 55.2598 27.376)" fill="white" stroke="black" stroke-width="2"/>
<rect x="55.2598" y="178.098" width="26.3763" height="18.8402" transform="rotate(-90 55.2598 178.098)" fill="white" stroke="black" stroke-width="2"/>
<rect x="105.752" y="27.376" width="26.3763" height="18.8402" transform="rotate(-90 105.752 27.376)" fill="white" stroke="black" stroke-width="2"/>
<rect x="105.752" y="178.098" width="26.3763" height="18.8402" transform="rotate(-90 105.752 178.098)" fill="white" stroke="black" stroke-width="2"/>
<rect x="0.999939" y="151.722" width="26.3763" height="26.3763" fill="white" stroke="black" stroke-width="2"/>
<rect x="151.722" y="151.722" width="26.3763" height="26.3763" fill="white" stroke="black" stroke-width="2"/>
<rect x="151.722" y="0.999512" width="26.3763" height="26.3763" fill="white" stroke="black" stroke-width="2"/>
<rect x="0.999969" y="1" width="26.3763" height="26.3763" fill="white" stroke="black" stroke-width="2"/>
<rect x="13.8113" y="14.5645" width="150.722" height="150.722" fill="white"/>
</svg>
