<svg width="181" height="330" viewBox="0 0 181 330" fill="none" xmlns="http://www.w3.org/2000/svg">
<rect x="14.7642" y="14.5652" width="150.722" height="300" fill="white" stroke="black" stroke-width="4"/>
<rect x="1.95282" y="60.5359" width="26.3763" height="18.8402" fill="white" stroke="black" stroke-width="2"/>
<rect x="2" y="160.019" width="26.3763" height="18.8402" fill="white" stroke="black" stroke-width="2"/>
<rect x="1" y="259.019" width="26.3763" height="18.8402" fill="white" stroke="black" stroke-width="2"/>
<rect x="1.95282" y="110.273" width="26.3763" height="18.8402" fill="white" stroke="black" stroke-width="2"/>
<rect x="2" y="209.756" width="26.3763" height="18.8402" fill="white" stroke="black" stroke-width="2"/>
<rect x="152.675" y="60.5359" width="26.3763" height="18.8402" fill="white" stroke="black" stroke-width="2"/>
<rect x="153" y="160.019" width="26.3763" height="18.8402" fill="white" stroke="black" stroke-width="2"/>
<rect x="152" y="259.019" width="26.3763" height="18.8402" fill="white" stroke="black" stroke-width="2"/>
<rect x="152.675" y="110.273" width="26.3763" height="18.8402" fill="white" stroke="black" stroke-width="2"/>
<rect x="153" y="209.756" width="26.3763" height="18.8402" fill="white" stroke="black" stroke-width="2"/>
<rect x="56.2127" y="27.3762" width="26.3763" height="18.8402" transform="rotate(-90 56.2127 27.3762)" fill="white" stroke="black" stroke-width="2"/>
<rect x="106.704" y="27.3762" width="26.3763" height="18.8402" transform="rotate(-90 106.704 27.3762)" fill="white" stroke="black" stroke-width="2"/>
<rect x="57" y="328.395" width="26.3763" height="18.8402" transform="rotate(-90 57 328.395)" fill="white" stroke="black" stroke-width="2"/>
<rect x="107.492" y="328.395" width="26.3763" height="18.8402" transform="rotate(-90 107.492 328.395)" fill="white" stroke="black" stroke-width="2"/>
<rect x="2" y="302.019" width="26.3763" height="26.3763" fill="white" stroke="black" stroke-width="2"/>
<rect x="152.722" y="302.019" width="26.3763" height="26.3763" fill="white" stroke="black" stroke-width="2"/>
<rect x="152.675" y="1.00073" width="26.3763" height="26.3763" fill="white" stroke="black" stroke-width="2"/>
<rect x="1.95285" y="1.00073" width="26.3763" height="26.3763" fill="white" stroke="black" stroke-width="2"/>
<rect x="14.7642" y="14.5652" width="150.722" height="300" fill="white"/>
</svg>
